<?xml version="1.0" encoding="UTF-8" standalone="no"?>
<svg
   xmlns:dc="http://purl.org/dc/elements/1.1/"
   xmlns:cc="http://creativecommons.org/ns#"
   xmlns:rdf="http://www.w3.org/1999/02/22-rdf-syntax-ns#"
   xmlns:svg="http://www.w3.org/2000/svg"
   xmlns="http://www.w3.org/2000/svg"
   id="svg168"
   version="1.1"
   viewBox="0 0 210 297"
   height="297mm"
   width="210mm">
  <defs
     id="defs162" />
  <metadata
     id="metadata165">
    <rdf:RDF>
      <cc:Work
         rdf:about="">
        <dc:format>image/svg+xml</dc:format>
        <dc:type
           rdf:resource="http://purl.org/dc/dcmitype/StillImage" />
        <dc:title></dc:title>
      </cc:Work>
    </rdf:RDF>
  </metadata>
  <g
     id="layer1">
    <path
       id="path151"
       d="m 307.02375,105.69378 c -0.0794,-0.0794 -3.95367,-0.23794 -8.60954,-0.35235 -4.65585,-0.11443 -9.97331,-0.35359 -11.81656,-0.53149 -1.84327,-0.17791 -3.58952,-0.32478 -3.88056,-0.32638 -2.10389,-0.0116 -6.887,-0.52303 -8.64306,-0.92416 -1.16417,-0.26594 -2.9898,-0.58771 -4.05694,-0.71506 -1.06714,-0.12736 -2.49589,-0.37483 -3.175,-0.54995 -2.16556,-0.55843 -12.44486,-2.539545 -14.64027,-2.821605 -2.56651,-0.32972 -4.00198,-0.63347 -4.9389,-1.04506 -0.38806,-0.17048 -2.29306,-0.57241 -4.23333,-0.89318 -7.12872,-1.17853 -8.24039,-1.39492 -8.49786,-1.65413 -0.14452,-0.14553 -0.84595,-0.26459 -1.55866,-0.26459 -0.71276,0 -2.47224,-0.29224 -3.90996,-0.64942 -1.43775,-0.35717 -3.32232,-0.68309 -4.18796,-0.72424 -0.86561,-0.0412 -1.75501,-0.22516 -1.97636,-0.40888 -0.22137,-0.18373 -1.41814,-0.43524 -2.65946,-0.55891 -1.24134,-0.12368 -2.41572,-0.34223 -2.60974,-0.48568 -0.19402,-0.14345 -1.30527,-0.37226 -2.46944,-0.50848 -1.16416,-0.13622 -3.46604,-0.53113 -5.11529,-0.87759 -1.64923,-0.34644 -3.3161,-0.6395 -3.70417,-0.65124 -1.65782,-0.0501 -6.43141,-0.82906 -7.36253,-1.2014 -0.55692,-0.22269 -2.96119,-0.41742 -5.34286,-0.43272 -2.38163,-0.0153 -4.27803,-0.11479 -4.21418,-0.22106 0.38457,-0.6401 -0.49681,-0.95518 -1.93583,-0.69204 -0.9058,0.16563 -1.93844,0.14508 -2.44821,-0.0487 -0.77756,-0.29562 -3.84093,-0.38979 -9.32413,-0.28662 -0.93499,0.0176 -1.88749,-0.12257 -2.11667,-0.31147 -0.5298,-0.43669 -13.29968,-0.18494 -15.03225,0.29635 -0.6927,0.19243 -2.46605,0.35076 -3.94083,0.35184 -1.47476,10e-4 -3.19837,0.18219 -3.83024,0.40246 -0.87159,0.30383 -1.21105,0.29982 -1.40663,-0.0166 -0.18733,-0.30309 -1.31006,-0.35434 -4.10726,-0.18746 -2.11723,0.12631 -5.0401,0.27922 -6.49531,0.3398 -2.88526,0.12012 -5.53032,0.50965 -9.34861,1.37676 -1.35821,0.30843 -4.45383,0.62395 -6.87916,0.70116 -2.42536,0.0772 -5.12411,0.30534 -5.99723,0.50698 -0.87313,0.20164 -2.54,0.3757 -3.70417,0.38679 -1.16417,0.0111 -2.75167,0.0285 -3.52777,0.0388 -0.77613,0.0103 -2.04613,0.16505 -2.82223,0.34401 -0.7761,0.17895 -2.0461,0.33335 -2.82223,0.3431 -0.7761,0.01 -2.52074,0.39572 -3.876938,0.8577 -1.84557,0.62868 -2.63536,0.74926 -3.1397,0.47936 -0.3805,-0.20365 -1.3802,-0.2594 -2.29664,-0.12807 -5.88836,0.84378 -13.17641,1.45754 -22.26032,1.87464 -8.73049,0.40087 -18.55314,0.22724 -19.29141,-0.34102 -0.22979,-0.17688 -1.57916,-0.38062 -2.9986,-0.45277 -1.41949,-0.0721 -3.37458,-0.30948 -4.34472,-0.52742 -0.97013,-0.21794 -2.71638,-0.48631 -3.88054,-0.59637 -1.16417,-0.11006 -2.4298,-0.41756 -2.81252,-0.68332 -0.38275,-0.26577 -1.10974,-0.48322 -1.61555,-0.48322 -0.50586,0 -2.01835,-0.38411 -3.36111,-0.85357 -1.34276,-0.46947 -4.18764,-1.28395 -6.32195,-1.80995 -2.13429,-0.52601 -4.11866,-1.14308 -4.40971,-1.37127 -0.85365,-0.6693 -2.49528,-1.28255 -2.84866,-1.06415 -0.17949,0.11094 -0.32634,0.0462 -0.32634,-0.14387 0,-0.19007 -0.51593,-0.45314 -1.14654,-0.58462 -0.63058,-0.13147 -1.54339,-0.49715 -2.02846,-0.81261 -0.48508,-0.31546 -0.96133,-0.5914 -1.05833,-0.6132 -0.097,-0.0218 -0.41452,-0.13429 -0.70556,-0.24998 -0.29104,-0.11568 -1.56104,-0.56446 -2.82223,-0.99728 -1.26117,-0.43281 -2.6285102,-1.08576 -3.0384802,-1.45099 -0.41,-0.36523 -0.88625,-0.62158 -1.05833,-0.56967 -0.17211,0.0519 -1.2654,-0.36857 -2.42957,-0.93439 -1.16416,-0.56583 -2.35569,-0.99451 -2.64781,-0.95265 -0.29213,0.0419 -1.55144,-0.32372 -2.79847003,-0.81243 -1.24700997,-0.4887 -3.45503997,-1.13389 -4.90675997,-1.43374 -1.45171,-0.29986 -2.76717,-0.62411 -2.92319,-0.72055 -1.6872,-1.04274 -20.2979898,-0.79421 -25.1765598,0.3362 -0.38804,0.0899 -1.91225,0.41634 -3.38712,0.72538 -1.47489,0.30904 -3.53864,0.82583 -4.5861,1.14841 -2.20588,0.67933 -2.33664,0.71584 -3.43191,0.95862 -0.82087,0.18196 -4.19455,1.36957 -5.5282,1.94604 -0.38804,0.16774 -1.97554,0.82935 -3.52777,1.47023 -1.55223,0.64089 -3.20083,1.45208 -3.66356,1.80265 -0.4627,0.35057 -1.18858,0.63739 -1.61305,0.63739 -0.42442,0 -1.67842,0.49109 -2.7866,1.09131 -1.10818,0.60021 -2.20792,1.12533 -2.4439,1.16693 -0.23593,0.0416 -1.064,0.40574 -1.84012,0.8092 -0.77611,0.40347 -2.44298,1.16479 -3.70417,1.69183 -1.26116,0.52705 -2.95902,1.25932 -3.77299,1.62728 -0.81399,0.36795 -1.68835,0.66901 -1.9431,0.66901 -0.25471,0 -1.2556,0.42224 -2.22422,0.93831 -0.96858,0.51608 -2.23731,1.06117 -2.8194,1.21133 -8.51101,2.19547 -8.26621,2.15864 -13.05279,1.96392 -2.52235,-0.10261 -4.82423,-0.25157 -5.11527,-0.33101 -0.29104,-0.0794 -1.00542,-0.27508 -1.5875,-0.43476 -1.711722,-0.46955 -5.468062,-2.58531 -5.468062,-3.07987 0,-0.14736 -0.27782,-0.56156 -0.61736,-0.92046 -0.92061,-0.97305 -2.00469,-2.33451 -1.93474,-2.42972 0.0339,-0.046 -0.23444,-0.77407 -0.59618,-1.61791 -0.7946,-1.85374 -2.20575,-7.34768 -2.32664,-9.05816 -0.048,-0.6791 -0.18119,-2.34598 -0.29599,-3.70417 -0.1148,-1.35819 -0.29909,-4.61257 -0.40955,-7.23194 -0.19262,-4.56688 -0.45323,-8.0834 -1.25508,-16.93334 -0.33872,-3.73851 -0.5181,-5.09558 -1.39895,-10.58333 -1.49392,-9.30736 -4.03498,-14.10274 -7.20511,-13.59714 -1.58737,0.25317 -6.05444,2.5439 -7.8086,4.00427 -0.62748,0.5224 -1.90804,1.50222 -2.84564,2.17738 -6.0501,4.35657 -28.26184,26.13837 -40.83788,40.04743 -14.57116,16.11567 -19.41513,19.24154 -27.45172,17.71499 -4.24243,-0.80584 -5.8671,-8.46805 -3.64405,-17.18582 1.89259,-7.42175 4.6064,-15.57809 8.33382,-25.04722 1.41298,-3.58952 2.57672,-6.79255 2.58614,-7.11785 0.01,-0.32531 0.14177,-0.51437 0.29425,-0.42015 0.15242,0.0942 0.27717,-0.0119 0.27717,-0.2357 0,-0.77381 5.70315,-12.39258 8.17793,-16.660538 0.76084,-1.312095 1.27127,-2.566937 1.13427,-2.788537 -0.14335,-0.232002 -0.0936,-0.306869 0.11734,-0.176498 0.20151,0.124526 0.54875,-0.213905 0.77166,-0.752067 0.67625,-1.632654 4.31639,-5.135534 5.37983,-5.176997 0.12932,-0.0051 0.34792,-0.121898 0.48572,-0.259683 0.36144,-0.361484 2.14423,0.641107 2.46097,1.383993 0.97247,2.281066 -0.72274,20.470917 -2.29259,24.600007 -0.19606,0.51563 -0.43199,1.36616 -0.52427,1.89008 -0.34185,1.9404 -5.69863,13.66019 -9.54522,20.88338 -1.08492,2.03729 -2.31582,4.49792 -2.73534,5.46806 -3.57743,8.27309 -7.26757,11.83829 -9.6039,9.2788 -0.24913,-0.27295 -0.19735,-0.29956 0.17637,-0.0906 0.44382,0.24814 0.45641,0.20601 0.0781,-0.26115 -0.47474,-0.58626 1.16988,-2.40064 2.17604,-2.40064 0.61973,0 2.20387,-1.77675 2.51629,-2.82223 0.145,-0.48507 0.38272,-0.96132 0.52835,-1.05833 0.42437,-0.28272 6.69745,-12.69944 6.4189,-12.7054 -0.1388,-0.003 -0.078,-0.12203 0.13523,-0.26458 0.56999,-0.38115 3.31658,-5.73993 3.31658,-6.47085 0,-0.34423 0.15806,-0.72356 0.35128,-0.84297 2.78712,-1.72253 6.63652,-16.80779 6.90465,-27.058129 0.16523,-6.317522 0.14861,-6.353511 -2.31558,-5.012327 -2.31905,1.262195 -9.60861,14.393686 -13.40776,24.152986 -0.63754,1.63771 -1.55065,3.93016 -2.02914,5.09433 -0.47853,1.16416 -1.97004,5.37104 -3.31449,9.34861 -3.31947,9.82042 -3.83276,11.43683 -3.99794,12.58988 -0.0781,0.54564 -0.39431,1.86519 -0.7026,2.93234 -2.02935,7.02497 -1.29873,11.91177 2.03899,13.63778 1.39636,0.7221 6.77838,0.38234 7.74134,-0.4887 0.33953,-0.30714 0.61735,-0.46271 0.61735,-0.34572 0,0.5711 2.18173,-0.65966 3.6826,-2.07743 0.92866,-0.87725 2.26595,-1.97041 2.97169,-2.42925 1.51723,-0.98641 3.04565,-2.46107 5.69294,-5.49273 1.06714,-1.22211 3.05152,-3.34888 4.4097,-4.72616 1.35822,-1.37729 3.81884,-4.00854 5.46807,-5.84722 1.64922,-1.83869 4.42735,-4.78586 6.1736,-6.54927 1.74625,-1.76341 3.73062,-3.82734 4.40973,-4.58652 0.67911,-0.75917 2.34598,-2.41265 3.70417,-3.67439 1.35818,-1.26173 3.25469,-3.20624 4.21447,-4.32112 0.95975,-1.11488 1.89454,-2.02705 2.07729,-2.02705 0.18278,0 1.86913,-1.54781 3.74746,-3.43958 4.30302,-4.33378 10.50493,-10.07899 11.71024,-10.84792 1.73064,-1.10409 2.70553,-1.81671 3.65054,-2.66847 0.58208,-0.52465 2.1209,-1.51047 3.4196,-2.19071 1.29869,-0.680238 2.29889,-1.299183 2.22266,-1.375428 -0.62505,-0.625028 4.796,-0.180419 6.16453,0.50559 2.46507,1.235658 4.61285,6.136658 5.44806,12.431798 0.10298,0.77611 0.42913,2.99861 0.72478,4.93889 0.55112,3.61632 1.78408,18.42713 2.49099,29.92259 0.17841,2.90097 1.03717,8.82783 1.70178,11.74477 0.30165,1.32416 2.34336,5.07569 2.76233,5.07569 0.22354,0 0.30575,0.10072 0.18267,0.22381 -0.12309,0.1231 0.44577,0.72391 1.2641,1.33514 2.37143,1.77122 3.356922,2.32543 4.396072,2.47229 0.53483,0.0756 1.78594,0.30284 2.78019,0.50501 1.77448,0.3608 6.15524,0.26035 7.89364,-0.181 0.48506,-0.12316 1.12006,-0.27093 1.4111,-0.3284 1.22026,-0.24092 4.92191,-1.21179 7.05556,-1.85053 3.62114,-1.08405 11.90882,-4.54832 12.95173,-5.41385 0.56012,-0.46485 6.81286,-3.29708 8.53045,-3.86393 0.68887,-0.22735 1.46664,-0.62753 1.72839,-0.88929 0.26178,-0.26175 0.68694,-0.47591 0.94486,-0.47591 0.25791,0 1.31815,-0.39533 2.35606,-0.8785 1.03791,-0.48317 2.30423,-0.88005 2.81408,-0.88194 0.5098,-0.002 1.11575,-0.23099 1.34657,-0.5091 0.2308,-0.2781 1.08368,-0.66613 1.89527,-0.86227 0.8116,-0.19615 2.34875,-0.66909 3.41593,-1.05098 1.06714,-0.3819 2.57526,-0.78845 3.35137,-0.90345 0.77613,-0.115 1.88738,-0.31312 2.46946,-0.44027 0.58208,-0.12714 1.29646,-0.26302 1.5875,-0.30196 0.29104,-0.0389 0.76729,-0.15349 1.05833,-0.25456 3.45737,-1.20072 8.07376,-1.77469 14.1111,-1.7545 6.63366,0.0222 10.14738,0.30144 12.5236098,0.99532 0.19404,0.0567 0.98779,0.21513 1.76389,0.35216 0.77611,0.13703 1.49048,0.36774 1.5875,0.51269 0.097,0.14495 1.27762,0.35898 2.62353,0.47562 2.59807997,0.22514 4.66066,0.80774 5.42735,1.53299 0.25641,0.24253 0.97872,0.44097 1.60515,0.44097 0.62642,0 1.28979,0.13657 1.47412,0.3035 0.18431,0.16693 1.20825,0.58763 2.27542,0.93491 1.06714,0.34728 2.8133902,1.02654 3.8805402,1.50947 1.06717,0.48294 2.13873,0.88243 2.38125,0.88778 0.24254,0.005 0.44098,0.15137 0.44098,0.32451 0,0.17314 0.14777,0.22347 0.3284,0.11184 0.18063,-0.11163 0.42812,-0.0416 0.54999,0.15557 0.12186,0.19719 0.52972,0.35853 0.9063,0.35853 0.37664,0 0.68474,0.14154 0.68474,0.31453 0,0.173 0.43657,0.42213 0.97015,0.55363 0.53359,0.13151 1.60515,0.52871 2.38125,0.88269 3.38288,1.5429 9.98625,3.8936 10.93753,3.8936 0.29025,0 0.52774,0.15875 0.52774,0.35277 0,0.19403 0.39904,0.35278 0.88675,0.35278 0.48768,0 1.16237,0.15636 1.49932,0.34747 1.74503,0.98984 16.22901,3.40292 22.83756,3.80481 8.76697,0.53315 23.27307,0.002 31.22083,-1.14238 0.48506,-0.0699 2.15194,-0.23698 3.70417,-0.37135 3.05078,-0.26411 3.27522,-0.29109 7.23193,-0.86941 1.455208,-0.2127 4.074588,-0.53765 5.820838,-0.72213 1.74625,-0.18447 4.445,-0.49766 5.99723,-0.69597 2.43334,-0.31089 6.6566,-0.77419 11.1125,-1.21908 3.24882,-0.32437 5.70635,-0.5917 8.29027,-0.90181 1.55223,-0.18629 4.09223,-0.42566 5.64443,-0.53191 1.55223,-0.10626 3.29848,-0.26525 3.88057,-0.35332 1.44306,-0.21833 12.58411,-0.78398 21.16666,-1.07466 3.88057,-0.13144 7.43726,-0.27937 7.90382,-0.32876 0.94102,-0.0996 15.77451,0.44798 18.55452,0.68494 5.0351,0.42918 9.87814,0.96221 12.8764,1.4172 5.94899,0.90276 6.86821,1.01659 7.51755,0.93084 0.3511,-0.0464 0.82735,0.0654 1.05833,0.24826 0.23096,0.1829 1.45182,0.44106 2.71299,0.57369 1.26119,0.13262 2.76931,0.37796 3.35139,0.54518 1.10821,0.31836 6.27666,1.24278 8.99584,1.60898 0.87312,0.11759 2.42633,0.44719 3.45162,0.73245 1.02523,0.28527 2.45398,0.59309 3.175,0.68406 0.72096,0.091 2.58088,0.40954 4.13311,0.70796 1.5522,0.29841 3.61595,0.68099 4.5861,0.85017 1.66579,0.29051 6.54767,1.34642 10.05417,2.17464 0.87312,0.20623 2.61937,0.50552 3.88056,0.66509 1.26116,0.15958 3.56304,0.55156 5.11527,0.87108 1.55223,0.31951 3.13973,0.64559 3.52777,0.72463 0.38806,0.079 1.41319,0.2387 2.27806,0.35482 0.86487,0.11611 1.66862,0.27052 1.7861,0.34313 1.13543,0.70174 19.18393,2.848215 26.8039,3.187745 3.311,0.14753 7.71973,0.39421 12.52361,0.70074 1.35821,0.0867 4.77133,0.2448 7.58473,0.35142 2.81339,0.10663 5.51214,0.2515 5.99723,0.32194 6.53002,0.94834 7.17965,1.14244 6.26179,1.8709 -0.86429,0.68594 -18.03665,1.60235 -18.64403,0.99492 z M -243.90839,95.351245 c -0.70754,-0.61352 -0.70805,-0.64698 -0.0794,-5.37986 0.88495,-6.6627 0.98851,-7.3435 1.93206,-12.7 0.46141,-2.61938 1.01891,-6.19125 1.23889,-7.9375 0.22,-1.74625 0.54933,-4.28625 0.73186,-5.64445 1.9639,-14.61323 1.76573,-26.97172 -0.35248,-21.97937 -0.43661,1.02907 -0.99822,2.34729 -1.24796,2.92937 -1.11402,2.59626 -3.33319,8.69715 -4.04214,11.1125 -0.42712,1.45521 -0.94134,2.95079 -1.14274,3.32352 -0.59684,1.10469 -4.2051,11.17784 -4.64349,12.96329 -0.22235,0.9056 -0.52326,1.76549 -0.66865,1.91088 -0.14539,0.14539 -0.26434,0.64265 -0.26434,1.10502 0,0.46236 -0.24464,1.31373 -0.54362,1.89193 -0.299,0.5782 -0.92233,2.35626 -1.38517,3.95124 -4.71943,16.26314 -14.85191,11.30123 -12.18965,-5.96932 0.17524,-1.13676 0.39019,-3.12068 0.47766,-4.40872 0.0875,-1.28804 0.40574,-3.58991 0.7072,-5.11528 0.30149,-1.52536 0.72641,-4.44027 0.94427,-6.47756 0.21786,-2.03729 0.55928,-4.73604 0.75872,-5.99722 0.19944,-1.26118 0.43368,-3.16618 0.52054,-4.23333 0.0869,-1.06716 0.30912,-2.57528 0.4939,-3.35139 0.18481,-0.77611 0.49112,-3.01458 0.68072,-4.97438 0.1896,-1.9598 0.58701,-4.49347 0.88313,-5.63038 0.29612,-1.1369 0.54406,-2.86717 0.55099,-3.84506 0.007,-0.97788 0.22842,-2.68093 0.49226,-3.78455 0.26382,-1.10362 0.40764,-2.078617 0.31959,-2.166662 -0.088,-0.08805 0.16322,-1.883836 0.5584,-3.990639 0.39513,-2.106806 0.80823,-4.465556 0.91797,-5.241666 0.10973,-0.776113 0.42146,-2.601738 0.69276,-4.056946 0.27128,-1.455209 0.59997,-3.3602089 0.73046,-4.2333339 0.13047,-0.873125 0.69533,-3.450243 1.25521,-5.726927 0.55989,-2.27668699 1.01799,-4.541028 1.01799,-5.03187 0,-0.490844 0.14983,-1.168101 0.33295,-1.505016 0.18312,-0.336918 0.90464,-2.438199 1.60335,-4.66952 1.35569,-4.3293581 2.5396,-7.4957331 3.23164,-8.6430561 0.23408,-0.388054 1.20634,-2.187004 2.16059,-3.997659 1.42576,-2.70529 4.85204,-7.565966 6.5976,-9.359654 0.21463,-0.220559 0.64389,-0.768305 0.9539,-1.217207 1.32792,-1.922836 4.23701,-4.690264 4.80634,-4.572275 1.3221,0.274002 0.61847,2.764117 -1.22359,4.330128 -0.91292,0.776113 -1.82893,1.627431 -2.03562,1.891824 -0.20667,0.264393 -0.99092,1.137518 -1.74276,1.940279 -0.75184,0.802759 -1.78224,2.094564 -2.28976,2.870677 -0.50752,0.77611 -1.0051,1.490485 -1.10575,1.5875 -0.50204,0.483917 -2.42522,3.641629 -3.63249,5.964253 -1.8906,3.63728 -4.80713,11.3792081 -5.52764,14.6732471 -0.16979,0.77611 -0.64744,2.83986 -1.06148,4.58611001 -1.42312,6.00204899 -2.72085,12.83785589 -3.51603,18.52083289 -0.33414,2.388023 -0.67238,4.509924 -1.77128,11.1125 -0.19375,1.16417 -0.43648,2.98163 -0.53938,4.03881 -0.10289,1.05717 -0.41611,3.43842 -0.69601,5.29166 -0.2799,1.85324 -0.68268,4.87766 -0.89506,6.72092 -0.21235,1.84326 -0.53607,4.22451 -0.71932,5.29167 -0.18325,1.06715 -0.41399,2.8134 -0.51279,3.88055 -0.29596,3.19676 -0.90069,7.62155 -1.59112,11.64167 -2.00988,11.70291 -0.84765,22.34767 2.26573,20.75143 2.414,-1.23768 3.4232,-3.05465 6.33352,-11.40282 1.7137,-4.91573 3.22865,-9.82743 3.12827,-10.14236 -0.0464,-0.14552 0.0559,-0.26458 0.2273,-0.26458 0.1714,0 0.39145,-0.35719 0.48898,-0.79375 0.3207,-1.43536 2.36214,-6.70366 2.81389,-7.26179 0.36508,-0.45103 0.35468,-0.49367 -0.0596,-0.24395 -0.36579,0.22053 -0.34187,0.0741 0.0882,-0.53994 0.32456,-0.46341 0.59015,-1.21044 0.59015,-1.66007 0,-0.44963 0.30046,-1.40649 0.66773,-2.12636 0.36724,-0.71988 0.68191,-1.42864 0.69921,-1.57504 0.1096,-0.92592 0.58066,-2.31468 1.01029,-2.97842 0.27596,-0.42633 0.46569,-0.82321 0.42161,-0.88195 -0.21725,-0.28944 0.38444,-1.85322 2.54037,-6.60256 0.65294,-1.43836 1.14748,-2.74805 1.09898,-2.91041 -0.0485,-0.16237 0.0706,-0.29521 0.26458,-0.29521 0.19402,0 0.35277,-0.30598 0.35277,-0.67995 0,-0.73621 1.54808,-2.14227 2.35865,-2.14227 1.6241,0 2.45076,13.35348 1.25577,20.28472 -0.23418,1.3582 -0.68109,5.1682 -0.99319,8.46667 -0.31208,3.29847 -0.79254,7.1226 -1.0677,8.49806 -0.27514,1.37546 -0.64635,3.59796 -0.82489,4.93889 -0.17857,1.34093 -0.65366,4.5604 -1.0558,7.15439 -0.85095,5.48902 -0.94623,7.8918 -0.25085,6.32499 0.23268,-0.52421 0.74388,-1.31796 1.13602,-1.76389 0.39213,-0.44592 1.08548,-1.6839 1.54074,-2.75105 0.45527,-1.06716 1.12287,-2.61554 1.48358,-3.44086 0.3607,-0.82532 0.70985,-1.77782 0.77589,-2.11667 0.066,-0.33885 0.30181,-1.05965 0.52395,-1.60178 0.22212,-0.54213 0.50641,-1.41526 0.63172,-1.94028 0.12531,-0.52502 0.35121,-1.11333 0.50199,-1.30736 0.15076,-0.19402 0.27909,-0.51152 0.28515,-0.70555 0.006,-0.19403 0.33035,-1.06716 0.72067,-1.94028 1.06034,-2.37193 2.85609,-7.05978 2.85609,-7.45594 0,-0.19089 0.87668,-2.37252 1.94816,-4.84806 1.07151,-2.47554 2.01467,-4.80768 2.0959,-5.18252 0.30141,-1.39066 2.38556,-6.95578 3.1642,-8.44908 0.30168,-0.57855 0.54861,-1.29003 0.54877,-1.58107 1.6e-4,-0.29104 0.46369,-1.71979 1.03005,-3.175 0.56637,-1.45521 1.44873,-3.83646 1.96078,-5.29166 0.51207,-1.45521 1.21599,-3.43959 1.56429,-4.40973 0.3483,-0.97013 0.83521,-2.39888 1.08204,-3.175 0.72544,-2.28099 3.54288,-10.138589 4.04776,-11.288887 0.25548,-0.582083 1.05518,-2.407708 1.7771,-4.056943 3.28038,-7.4941009 8.42288,-17.3725869 11.16195,-21.4415659 0.5589,-0.830289 1.01621,-1.632585 1.01621,-1.782879 0,-0.474422 2.25827,-2.4400221 3.09192,-2.6912041 0.43939,-0.132387 0.70895,-0.386207 0.59907,-0.564042 -0.10993,-0.177837 0.0151,-0.240802 0.27813,-0.139927 0.76565,0.29382 1.72683,2.1990841 1.90892,3.7839731 0.0924,0.804418 0.22902,1.561253 0.30355,1.68185 0.5139,0.831543 -1.12382,11.376168 -1.7345,11.167827 -0.43437,-0.14818 -0.44418,-1.525844 -0.0408,-5.721765 0.28546,-2.969398 -0.19355,-6.446687 -0.95266,-6.915857 -1.719,-1.062408 -14.10536,22.2835049 -18.27329,34.4416499 -0.59862,1.74625 -2.29013,6.74687 -3.75891,11.1125 -2.62459,7.80095 -6.16982,17.8391 -6.79032,19.22639 -0.17357,0.38805 -1.11636,2.84868 -2.09508,5.46805 -0.97872,2.61938 -2.09708,5.55625 -2.48525,6.52639 -2.11982,5.29824 -3.21191,8.16157 -3.21191,8.4212 0,0.16039 -0.22664,0.79186 -0.50364,1.40326 -0.27699,0.61141 -1.08516,2.93728 -1.79594,5.1686 -3.06996,9.63748 -6.35195,13.95452 -8.91757,11.72986 z m 29.38521,-6.0719 c -4.0631,-1.84911 -4.41163,-14.419 -0.70469,-25.41352 0.5761,-1.7086 0.74933,-2.39188 1.29495,-5.10741 0.19407,-0.96582 0.4917,-2.01551 0.66143,-2.33267 0.16976,-0.31715 0.40024,-1.09661 0.51218,-1.73214 0.11197,-0.63553 0.38106,-1.4871 0.59793,-1.89237 0.39077,-0.73013 0.58899,-1.40746 1.51112,-5.16319 0.89638,-3.65087 3.76494,-10.04009 4.6623,-10.38444 0.81542,-0.3129 0.33748,1.71314 -1.49267,6.3275 -0.84651,2.1343 -1.78157,4.94642 -2.07796,6.24915 -0.29636,1.30273 -0.84394,3.2871 -1.21682,4.40972 -0.37288,1.12262 -0.9471,3.23175 -1.27606,4.68696 -0.32895,1.45521 -0.7284,3.04271 -0.88765,3.52778 -0.76528,2.33115 -1.67275,6.99791 -2.29801,11.81806 -0.38769,2.9886 -0.59719,9.43747 -0.30065,9.25436 0.16997,-0.10496 0.33407,0.22511 0.36465,0.73347 0.10441,1.73489 2.52053,2.96323 4.18288,2.12652 0.92914,-0.46768 2.63633,-3.86453 3.17516,-6.31768 0.12491,-0.56879 0.44193,-1.03417 0.7045,-1.03417 0.64273,0 0.99743,1.23367 0.57939,2.01514 -0.18555,0.34688 -0.41251,1.10694 -0.50438,1.68902 -0.92498,5.86117 -3.68395,8.27095 -7.4876,6.53991 z m -282.04584,-4.42245 c -5.98305,-0.85982 -14.32499,-4.30467 -15.11138,-6.24033 -0.0651,-0.16018 -0.26352,-0.20151 -0.44097,-0.0918 -0.17745,0.10967 -0.32265,-0.0425 -0.32265,-0.33817 0,-0.50871 -1.17567,-1.38603 -1.94028,-1.44788 -0.19402,-0.0157 -0.30385,-0.24747 -0.24405,-0.51507 0.0598,-0.26759 -0.31263,-1.42546 -0.82763,-2.57303 -1.55577,-3.46671 -1.34037,-11.23118 0.42804,-15.42919 0.1226,-0.29105 0.1856,-0.82434 0.13999,-1.18509 -0.0456,-0.36076 0.0721,-0.56011 0.26159,-0.443 0.18949,0.11711 0.43871,-0.0325 0.55384,-0.33254 0.13031,-0.33959 0.0644,-0.45591 -0.17462,-0.30818 -0.54126,0.33451 0.14446,-0.88134 1.02102,-1.81037 1.00382,-1.06391 1.55572,-2.22808 1.27308,-2.6854 -0.14275,-0.23097 -0.0907,-0.30329 0.12311,-0.17112 0.44454,0.27474 0.89626,-0.73221 0.56727,-1.26454 -0.12762,-0.20649 -0.0727,-0.27696 0.12208,-0.15659 0.19476,0.12037 0.56361,-0.1726 0.81968,-0.65105 0.25605,-0.47845 0.60685,-0.8699 0.77954,-0.8699 0.17269,0 0.23488,-0.12799 0.1382,-0.28443 -0.0967,-0.15643 0.3702,-0.73965 1.03751,-1.29606 0.66732,-0.55639 1.21743,-1.18246 1.22247,-1.39127 0.009,-0.36193 5.04017,-5.25448 7.83899,-7.62262 0.72698,-0.6151 1.23467,-1.25931 1.12821,-1.43157 -0.10647,-0.17226 0.0528,-0.21865 0.35392,-0.1031 0.30112,0.11555 0.55175,0.074 0.55698,-0.0922 0.005,-0.16628 0.64021,-0.69142 1.41111,-1.16699 0.77089,-0.47557 1.40162,-0.9915 1.40162,-1.14653 0,-0.15502 0.20195,-0.28186 0.44879,-0.28186 0.24683,0 1.00089,-0.44852 1.67569,-0.99672 0.6748,-0.5482 1.51478,-1.1027 1.86663,-1.23223 0.37056,-0.13642 0.53316,-0.40792 0.38646,-0.64529 -0.16076,-0.26012 -0.0989,-0.31435 0.16949,-0.14851 0.2325,0.1437 0.6466,0.0755 0.9202,-0.15159 0.84937,-0.70492 5.39654,-2.7776 5.61481,-2.55933 0.11375,0.11375 0.20682,0.0466 0.20682,-0.1492 0,-0.19582 0.55562,-0.65525 1.23472,-1.02097 0.6791,-0.36571 1.23472,-0.77038 1.23472,-0.89925 0,-0.12887 0.43657,-0.342881 0.97014,-0.475577 0.53358,-0.132702 2.00078,-0.731994 3.26044,-1.331764 1.25967,-0.599774 2.51176,-1.090494 2.78243,-1.090494 0.27067,0 0.56996,-0.297595 0.66507,-0.661321 0.0951,-0.363725 0.43053,-0.630367 0.74535,-0.592539 0.62845,0.07551 1.22437,-0.125572 3.5048,-1.182611 0.8367,-0.387832 2.02732,-0.836615 2.64583,-0.997289 0.6185,-0.160676 2.71205,-0.837324 4.65233,-1.503661 1.94028,-0.66634 4.43899,-1.320903 5.55268,-1.454584 1.28293,-0.153996 2.13943,-0.447725 2.33748,-0.801611 0.24847,-0.443995 0.68331,-0.514641 2.12024,-0.344458 1.12514,0.133254 1.80766,0.07931 1.80766,-0.142886 0,-0.196339 0.16407,-0.255577 0.3646,-0.131643 0.93184,0.575913 -2.77385,2.389989 -6.89099,3.3734 -1.74625,0.417105 -3.34163,0.89168 -3.54528,1.054611 -0.20366,0.16293 -1.07678,0.40608 -1.94028,0.540329 -0.8635,0.13425 -2.42578,0.696839 -3.47174,1.250194 -1.04596,0.553357 -2.09234,1.006104 -2.32529,1.006104 -0.23295,0 -1.70557,0.635 -3.27249,1.411113 -1.56692,0.77611 -3.02085,1.41111 -3.23096,1.41111 -0.21011,0 -0.38202,0.141113 -0.38202,0.313582 0,0.172468 -0.19843,0.293282 -0.44097,0.268475 -0.50643,-0.0518 -8.03338,3.71028 -9.47001,4.73325 -0.52671,0.37506 -1.0713,0.68192 -1.21021,0.68192 -0.63281,0 -6.49999,4.14759 -11.63297,8.22352 -1.65055,1.31064 -9.12273,8.86335 -10.40695,10.5191 -0.48507,0.6254 -1.07282,1.32838 -1.30612,1.56218 -0.23329,0.2338 -0.3259,0.52337 -0.20578,0.64348 0.12011,0.12011 0.0504,0.21838 -0.15495,0.21838 -0.20533,0 -0.46543,0.36697 -0.578,0.81549 -0.11257,0.44851 -0.58925,1.26305 -1.0593,1.81007 -2.17871,2.53552 -4.27608,12.68629 -3.12657,15.13181 0.19738,0.41991 0.61598,1.48891 0.93024,2.37556 0.71181,2.00833 4.34796,6.302 4.88345,5.76651 0.09,-0.09 0.36452,0.0782 0.60996,0.37398 0.24543,0.29573 0.66493,0.5377 0.93221,0.5377 0.26728,0 0.48597,0.14613 0.48597,0.32474 0,0.17861 0.47625,0.42935 1.05834,0.5572 0.58208,0.12785 1.05833,0.38795 1.05833,0.57802 0,0.19006 0.15875,0.24745 0.35278,0.12754 0.19402,-0.11992 0.35277,-0.0329 0.35277,0.19331 0,0.22623 0.23813,0.31996 0.52917,0.20828 0.29104,-0.11168 0.52917,-0.0493 0.52917,0.13864 0,0.18794 0.56499,0.34171 1.25554,0.34171 0.69055,0 1.16658,0.14394 1.05785,0.31988 -0.10874,0.17593 0.1021,0.24148 0.46853,0.14565 0.36643,-0.0958 0.76914,-0.008 0.89492,0.19581 0.1554,0.25145 0.52362,0.2579 1.14896,0.0201 0.6286,-0.239 1.29915,-0.22485 2.11572,0.0446 0.65749,0.21699 2.97619,0.37292 5.15266,0.3465 5.47955,-0.0665 6.01796,-0.0374 6.24987,0.33785 0.11791,0.19078 1.49352,0.23858 3.26597,0.1135 1.95103,-0.13769 2.98127,-0.34714 2.83908,-0.57721 -0.13306,-0.21531 0.002,-0.27463 0.33502,-0.14692 0.56229,0.21577 6.99622,-0.55893 7.56588,-0.91101 0.16837,-0.10405 1.65007,-0.2875 3.29265,-0.40765 2.86706,-0.20972 6.70228,-0.8985 9.02644,-1.62109 0.60557,-0.18827 1.35518,-0.24479 1.66581,-0.1256 0.59909,0.2299 2.70121,-0.5449 2.70121,-0.99562 0,-0.14666 0.39688,-0.26666 0.88194,-0.26666 0.48507,0 0.88195,-0.14614 0.88195,-0.32474 0,-0.17861 0.51594,-0.4322 1.14653,-0.56354 0.63059,-0.13133 2.33715,-0.62317 3.79236,-1.09297 1.45521,-0.4698 3.13335,-1.00996 3.72921,-1.20035 0.59586,-0.1904 1.42141,-0.34617 1.83455,-0.34617 0.41315,0 0.87813,-0.21496 1.03329,-0.47767 0.34295,-0.58066 1.86746,-1.42142 1.87501,-1.03405 0.003,0.15235 0.12363,0.0911 0.26812,-0.13601 0.40599,-0.63822 2.37851,-1.0602 2.02028,-0.4322 -0.15449,0.27084 0.0646,0.13694 0.48678,-0.29756 0.99088,-1.01968 2.4181,-1.7501 3.72689,-1.90735 0.57168,-0.0687 1.3979,-0.48207 1.83605,-0.91864 0.43815,-0.43656 1.08167,-0.79679 1.43003,-0.80051 0.34837,-0.004 1.2423,-0.53829 1.98651,-1.18793 0.7442,-0.64964 1.94867,-1.3596 2.67659,-1.57769 0.72792,-0.21808 1.61206,-0.7154 1.96477,-1.10512 0.3527,-0.38974 0.85479,-0.70861 1.11576,-0.70861 0.26097,0 0.47449,-0.13192 0.47449,-0.29316 0,-0.16124 0.43656,-0.51444 0.97014,-0.78489 0.83326,-0.42235 1.95,-1.19893 3.4618,-2.40732 0.20625,-0.16486 0.75187,-0.50144 1.2125,-0.74796 0.46063,-0.24652 1.15525,-0.74424 1.5436,-1.10605 0.38836,-0.36181 0.83493,-0.65784 0.99237,-0.65784 0.15744,0 0.28626,-0.2475 0.28626,-0.54999 0,-0.30249 0.14363,-0.46122 0.31918,-0.35272 0.17554,0.1085 1.38724,-0.83464 2.69267,-2.09585 1.30542,-1.26121 2.48434,-2.29311 2.61982,-2.29311 0.13548,0 0.45583,-0.39145 0.71188,-0.8699 0.25606,-0.47845 0.57147,-0.80445 0.70091,-0.72445 0.12944,0.08 0.46271,-0.18224 0.74058,-0.58276 0.27788,-0.40051 1.14023,-1.4463 1.91635,-2.32398 0.77611,-0.87768 1.63277,-1.93055 1.90369,-2.3397 0.27092,-0.40916 0.66795,-0.90268 0.88227,-1.09671 0.53024,-0.48001 2.32931,-3.26959 2.32931,-3.61173 0,-0.15152 0.33079,-0.48206 0.73508,-0.73455 0.43253,-0.27012 0.65199,-0.67558 0.53321,-0.98512 -0.11103,-0.28934 -0.0564,-0.43614 0.12147,-0.32623 0.17783,0.10991 0.43497,-0.15966 0.57141,-0.59904 0.13644,-0.43938 0.54005,-1.21367 0.89692,-1.72064 0.35686,-0.50697 0.5477,-1.02291 0.42408,-1.14653 -0.12362,-0.12362 -0.0131,-0.22476 0.24561,-0.22476 0.2587,0 0.36923,-0.10114 0.24561,-0.22476 -0.12362,-0.12362 0.0915,-0.66891 0.47803,-1.21175 0.38654,-0.54284 0.66985,-1.11638 0.6296,-1.27454 -0.0403,-0.15816 0.1964,-0.90701 0.52591,-1.66411 0.57367,-1.31809 1.16975,-3.97677 1.01619,-4.53248 -0.0402,-0.14552 0.0592,-0.26458 0.22086,-0.26458 0.85418,0 0.75805,-8.544947 -0.11707,-10.406947 -0.36476,-0.776113 -0.67847,-1.490488 -0.69714,-1.5875 -0.54452,-2.830348 -10.64963,-11.1729569 -12.03293,-9.9341889 -0.14297,0.128037 -0.15627,0.05137 -0.0296,-0.170386 0.24662,-0.431535 -6.43598,-3.30536599 -7.67948,-3.30253699 -0.37566,7.94e-4 -1.64566,-0.222144 -2.82222,-0.495557 -2.13548,-0.496247 -7.5445,-1.31724401 -9.54754,-1.44915401 -0.58208,-0.03833 -3.12208,-0.17461 -5.64444,-0.302832 -2.52236,-0.128222 -6.25299,-0.335063 -8.29028,-0.459642 -2.03729,-0.124584 -4.20896,-0.242856 -4.82594,-0.262829 -0.61697,-0.01998 -1.23874,-0.153295 -1.38171,-0.296265 -0.14295,-0.14297 -0.89231,-0.259942 -1.66523,-0.259942 -1.36204,0 -6.57707,-0.895213 -7.64932,-1.313085 -0.29105,-0.113422 -0.68792,-0.224817 -0.88195,-0.247544 -0.83401,-0.09769 -1.94028,-0.629418 -1.94028,-0.93259 0,-0.180952 -0.19843,-0.334286 -0.44097,-0.340741 -0.60117,-0.01601 -2.02847,-1.241253 -2.02847,-1.741326 0,-0.222885 -0.11946,-0.331412 -0.26547,-0.241176 -3.01746,1.864892 1.56792,-8.6344131 5.5668,-12.7465011 1.24762,-1.282943 2.03848,-2.370846 1.89374,-2.605037 -0.15284,-0.247306 -0.0917,-0.305213 0.15875,-0.15041 0.22401,0.138443 0.40729,0.07423 0.40729,-0.142703 0,-0.216929 0.15875,-0.296304 0.35278,-0.17639 0.19403,0.119917 0.35277,0.07341 0.35277,-0.103346 0,-0.334423 9.53479,-9.996101 14.25898,-14.448737 1.49249,-1.4067 2.5882,-2.557637 2.43491,-2.557637 -0.15329,0 0.23256,-0.277813 0.85746,-0.617363 0.62488,-0.339548 1.99056,-1.450798 3.03483,-2.469444 1.04427,-1.018646 2.04673,-1.852083 2.22768,-1.852083 0.18095,0 1.0353,-0.711187 1.89855,-1.580415 0.86325,-0.869223 1.72829,-1.586763 1.92232,-1.594528 0.42799,-0.01714 5.39228,-3.667819 6.27555,-4.614971 0.3471,-0.372216 0.83778,-0.676754 1.09038,-0.676754 0.25261,0 1.11955,-0.647221 1.92654,-1.43827 0.80699,-0.791043 1.46725,-1.341083 1.46725,-1.222306 0,0.118777 0.32194,0.04366 0.71544,-0.166936 0.39348,-0.21059 0.60708,-0.558202 0.47466,-0.772473 -0.15046,-0.243437 -0.0782,-0.289102 0.19262,-0.121729 0.25592,0.158168 0.78539,-0.06282 1.29295,-0.539652 0.85412,-0.802405 2.69212,-2.005915 4.37988,-2.867927 0.83211,-0.424993 1.19523,-0.672918 2.21711,-1.513764 0.2358,-0.194027 1.42411,-0.820057 2.64068,-1.391171 1.21658,-0.571116 2.47149,-1.325179 2.78871,-1.675696 0.31721,-0.350515 0.69536,-0.637299 0.84032,-0.637299 0.14497,0 2.38255,-1.010499 4.97241,-2.245559 2.58986,-1.235053 5.30414,-2.457569 6.03175,-2.716699 0.7276,-0.259133 1.32291,-0.598006 1.32291,-0.753057 0,-0.155048 0.45557,-0.281908 1.01238,-0.281908 0.55681,0 1.98111,-0.30947 3.16511,-0.687716 3.50639,-1.120153 10.1936,-1.782223 9.68472,-0.958839 -0.11709,0.189452 -0.0343,0.234108 0.18389,0.09924 0.46829,-0.28942 3.94557,1.13089 3.94557,1.61158 0,0.181586 0.15875,0.232045 0.35278,0.112128 0.19403,-0.119918 0.35278,-0.03471 0.35278,0.189304 0,0.224036 0.32933,0.869844 0.73186,1.435134 1.28594,1.805948 -1.36846,7.654054 -5.54249,12.211029 -0.65263,0.712507 -1.1866,1.423193 -1.1866,1.579306 0,0.156112 -0.22489,0.283837 -0.49977,0.283837 -0.27487,0 -0.56205,0.186856 -0.63818,0.415237 -0.3117,0.935106 -1.04263,-0.165921 -0.83034,-1.250762 0.1189,-0.607613 0.23999,-1.296207 0.26909,-1.530205 0.0291,-0.234003 0.1852,-0.343694 0.34689,-0.243763 0.16169,0.09993 0.29398,0.0042 0.29398,-0.212728 0,-0.216932 0.18328,-0.281146 0.40729,-0.142703 0.22651,0.139996 0.31242,0.09822 0.19354,-0.09413 -0.11756,-0.190209 0.33954,-0.867709 1.01578,-1.505548 0.67623,-0.637845 1.45416,-1.697371 1.72873,-2.354504 0.27456,-0.657132 0.67929,-1.194786 0.89939,-1.194786 0.2201,0 0.32829,-0.198438 0.24042,-0.440973 -0.0879,-0.242536 0.0644,-0.699096 0.33846,-1.01458 6.48331,-7.464427 -11.20361,-7.716977 -23.69559,-0.338349 -0.58298,0.344347 -1.61559,0.840145 -2.29469,1.101773 -0.67909,0.261622 -1.31409,0.58071 -1.41111,0.709075 -0.097,0.128365 -1.36701,0.898385 -2.82222,1.711153 -3.29863,1.842357 -3.42313,1.917036 -6.96409,4.177311 -1.59893,1.020635 -3.06737,1.8557 -3.2632,1.8557 -0.19582,0 -0.35604,0.121605 -0.35604,0.270235 0,0.148632 -0.75407,0.786384 -1.6757,1.417227 -0.92163,0.630846 -2.39007,1.689327 -3.26319,2.352178 -0.87313,0.662852 -1.78594,1.215723 -2.02847,1.228605 -0.24254,0.01289 -0.44177,0.142484 -0.44273,0.288005 -0.001,0.145521 -0.99372,0.930709 -2.20612,1.744863 -1.21239,0.814158 -2.56098,1.812532 -2.99685,2.218607 -0.43587,0.406075 -0.79355,0.613074 -0.79482,0.459997 -0.001,-0.15308 -0.29489,0.16538 -0.65247,0.707686 -0.35757,0.542308 -1.15094,1.256683 -1.76302,1.5875 -1.45758,0.787786 -5.54027,4.340717 -9.91354,8.627181 -1.93007,1.891771 -3.57946,3.439584 -3.66531,3.439584 -0.26045,0 -4.13515,3.93668 -6.75751,6.865609 -1.35819,1.516978 -3.541,3.839506 -4.85069,5.161182 -1.30969,1.321671 -2.38125,2.531385 -2.38125,2.688254 0,0.156874 -0.38341,0.698717 -0.85203,1.204103 -2.26047,2.437813 -3.50406,5.816465 -2.69637,7.3256461 0.44256,0.826937 5.16593,2.981327 6.03697,2.753548 0.37807,-0.09887 0.61138,-0.05675 0.51846,0.09359 -0.33607,0.543772 7.54982,1.676194 13.6716,1.963251 14.50399,0.680112 17.97597,1.061866 24.34107,2.676366 1.50882,0.382712 2.92241,0.585148 3.14131,0.449861 0.2291,-0.141592 0.30088,-0.08883 0.16913,0.124338 -0.24756,0.40056901 0.50338,0.79702801 1.50968,0.79702801 0.3446,0 1.69449,0.556649 2.99976,1.236999 1.30526,0.68035199 2.51845,1.14723299 2.69598,1.03751599 0.17752,-0.109718 0.32277,-0.05685 0.32277,0.117485 0,0.174332 0.43657,0.515123 0.97014,0.757307 7.97585,3.620166 12.75033,11.9267229 12.03377,20.9361669 -0.16303,2.049851 -0.0282,2.067151 1.18195,0.15164 1.87537,-2.968654 7.08417,-7.401478 9.64278,-8.206261 9.52027,-2.994491 8.29401,13.750642 -1.90032,25.949702 -5.65017,6.76128 -8.27623,9.45004 -16.51261,16.90683 -0.41684,0.37739 -0.87885,0.57743 -1.02669,0.44453 -0.14784,-0.1329 -0.16252,-0.056 -0.0326,0.17089 0.1299,0.2269 -0.004,0.65212 -0.29622,0.94494 -0.97628,0.97628 0.97638,3.35508 2.83126,3.44913 0.47831,0.0243 1.0681,0.0572 1.31064,0.0731 0.86999,0.0573 2.92997,-0.8412 3.96875,-1.73109 0.58208,-0.49865 0.82021,-0.804 0.52916,-0.67856 -0.29104,0.12544 -0.0529,-0.13384 0.52917,-0.57619 0.58208,-0.44234 2.08484,-1.80349 3.33945,-3.02477 1.25462,-1.22129 2.40163,-2.22053 2.54891,-2.22053 0.14728,0 0.11979,-0.38927 -0.0611,-0.86505 -0.26576,-0.69899 -0.22936,-0.82686 0.18961,-0.66609 0.64674,0.24818 1.43225,-0.38889 2.45549,-1.99146 0.43542,-0.68194 1.53689,-1.99001 2.4477,-2.90682 0.91082,-0.91682 1.55304,-1.83356 1.42718,-2.03722 -0.12587,-0.20365 -0.098,-0.32924 0.0619,-0.27907 0.39624,0.12427 1.80406,-1.36235 3.27126,-3.45436 0.6691,-0.95406 1.3239,-1.81403 1.45509,-1.91104 0.1312,-0.097 0.56582,-0.79016 0.96583,-1.54034 0.40001,-0.75017 1.01521,-1.65536 1.36712,-2.01154 1.01198,-1.02422 1.52129,-1.68739 1.52792,-1.98948 0.0465,-2.11918 5.1018,-5.0874 5.51594,-3.23869 0.0603,0.26938 0.20516,0.89866 0.3218,1.3984 0.2445,1.04749 -1.17247,8.24854 -2.73671,13.90804 -2.21354,8.00869 -3.44153,15.54044 -2.80174,17.18422 0.45188,1.16101 2.41144,1.84044 3.15936,1.09542 0.25639,-0.2554 0.67206,-0.46436 0.92371,-0.46436 0.83595,0 4.91566,-4.63839 4.37889,-4.97853 -0.37499,-0.23763 -0.35045,-0.30349 0.11465,-0.30774 0.32547,-0.003 0.89971,-0.39689 1.27608,-0.87538 0.37639,-0.47849 0.78478,-0.76953 0.90756,-0.64676 0.12277,0.12277 0.22322,0.0316 0.22322,-0.20264 0,-0.38315 1.27897,-2.42686 1.79403,-2.86673 0.1136,-0.097 0.35173,-0.43713 0.52917,-0.7558 0.40826,-0.7332 2.89219,-3.7161 3.9386,-4.72979 0.43657,-0.42291 0.79375,-0.94916 0.79375,-1.16945 0,-0.22028 0.13193,-0.40051 0.29317,-0.40051 0.16124,0 0.51843,-0.43067 0.79375,-0.95704 1.8024,-3.44591 3.98823,-3.65267 4.80029,-0.45408 0.29556,1.16419 0.0435,7.78077 -0.43438,11.40433 -0.27896,2.11504 -0.41161,4.22638 -0.29478,4.69185 0.11682,0.46548 0.0525,1.0427 -0.14291,1.28271 -0.56761,0.69715 -0.73328,5.59779 -0.17352,5.13323 0.24752,-0.20543 0.45004,-0.57276 0.45004,-0.81628 0,-0.24353 0.23638,-0.63895 0.52528,-0.87872 0.28891,-0.23978 0.44503,-0.56579 0.34695,-0.7245 -0.0981,-0.1587 0.2229,-0.87981 0.71331,-1.60246 0.4904,-0.72264 0.82008,-1.38546 0.73263,-1.47291 -0.0875,-0.0875 0.11917,-0.45762 0.45919,-0.82258 0.34001,-0.36497 1.14893,-1.97525 1.79761,-3.57842 0.64868,-1.60317 1.90478,-4.34199 2.79135,-6.08627 0.88657,-1.74427 1.65645,-3.46304 1.71085,-3.81948 0.0544,-0.35645 0.32649,-0.87566 0.60465,-1.15382 0.27816,-0.27816 0.70605,-1.05971 0.95089,-1.73677 0.24482,-0.67706 0.55536,-1.23102 0.69007,-1.23102 0.13472,0 0.65998,-0.79375 1.16725,-1.76389 0.50728,-0.97013 0.81681,-1.76388 0.68785,-1.76388 -0.12895,0 0.009,-0.27782 0.306,-0.61737 0.29725,-0.33954 0.75062,-1.21267 1.00749,-1.94027 0.25687,-0.72761 0.62035,-1.32292 0.80774,-1.32292 0.18739,0 0.25042,-0.0903 0.14008,-0.20063 -0.19091,-0.19091 1.28246,-4.1714 1.81916,-4.91465 0.2654,-0.36755 1.84106,-4.11862 3.2601,-7.761108 0.45353,-1.164167 0.94466,-2.169912 1.09139,-2.234991 0.14673,-0.06508 0.18378,-0.252614 0.0823,-0.416745 -0.16357,-0.264668 0.16435,-1.190721 1.32888,-3.752821 0.19002,-0.41806 0.23802,-0.933998 0.10667,-1.146527 -0.13135,-0.212529 -0.0849,-0.386416 0.10331,-0.386416 0.40352,0 1.82525,-2.823125 1.99813,-3.967668 0.14324,-0.948362 1.17389,-3.8171439 1.55195,-4.3198309 0.14708,-0.195553 0.64109,-1.308058 1.09781,-2.472224 0.45672,-1.164167 1.29882,-2.989792 1.87134,-4.056944 2.90234,-5.40988 3.37159,-6.35 3.16951,-6.35 -0.12068,0 0.0868,-0.277812 0.46103,-0.61736 0.83809,-0.760402 2.00546,-2.55764 1.66128,-2.55764 -0.13857,0 0.0423,-0.21517 0.40197,-0.478152 0.41132,-0.300771 0.56871,-0.700183 0.42424,-1.076656 -0.13148,-0.342635 -0.0857,-0.509511 0.10715,-0.390337 0.48774,0.301437 2.82912,-2.3041271 2.83551,-3.1554371 0.004,-0.548714 0.0789,-0.604128 0.31421,-0.232666 0.24523,0.387204 0.35469,0.343027 0.53167,-0.214607 0.12258,-0.386204 1.13212,-1.580194 2.24343,-2.653313 2.44458,-2.360565 2.92558,-2.947061 2.64611,-3.226519 -0.11768,-0.11769 -0.0493,-0.213979 0.15203,-0.213979 0.30796,0 0.73326,-2.188216 0.99419,-5.11528 0.0346,-0.388054 0.46883,-2.610554 0.96497,-4.938887 0.49614,-2.328333 1.00521,-5.106458 1.13128,-6.173613 0.12606,-1.067152 0.4504,-2.972152 0.72073,-4.233333 0.27034,-1.261179 0.67224,-3.324929 0.89306,-4.586111 0.22087,-1.261181 0.56568,-2.491493 0.76626,-2.734029 0.2006,-0.242533 0.26905,-0.440971 0.15211,-0.440971 -0.16936,0 1.32482,-2.986795 1.73831,-3.474742 0.0575,-0.06785 0.65093,0.05697 1.31879,0.277384 1.66325,0.548926 1.68545,1.84477 0.0489,2.856199 -1.7607,1.088166 -2.638,4.237633 -4.61551,16.568936 -0.29559,1.843265 -0.75122,4.30389 -1.01251,5.468057 -0.99831,4.447963 -1.06118,6.111526 -0.19666,5.203473 0.41562,-0.436563 0.91762,-0.79375 1.11554,-0.79375 0.19793,0 0.24659,-0.18328 0.10814,-0.407286 -0.15294,-0.247463 -0.0971,-0.311719 0.14235,-0.163743 0.21672,0.133948 1.23346,-0.189034 2.25935,-0.717743 1.02592,-0.528704 2.19567,-0.984697 2.59945,-1.013315 0.40379,-0.02861 0.8876,-0.146881 1.07519,-0.262805 0.68279,-0.421989 1.36827,0.336661 0.85884,0.950502 -0.25382,0.30583 -0.59375,0.556057 -0.75541,0.556057 -0.16166,0 -0.84664,0.357187 -1.52223,0.79375 -0.67556,0.436562 -1.89746,1.190625 -2.71531,1.675693 -1.60478,0.951802 -4.35885,3.129209 -4.40845,3.48538 -0.0168,0.120333 -0.1171,0.456912 -0.22299,0.747953 -0.44601,1.225929 -1.58696,5.9498181 -1.81916,7.5318701 -0.0453,0.308878 -0.19285,0.672029 -0.32782,0.806993 -0.13497,0.134969 -0.2454,0.646649 -0.2454,1.137068 0,1.353971 -1.68065,9.633834 -2.80264,13.807403 -0.54769,2.0372909 -1.18396,4.7360409 -1.41392,5.9972229 -0.22996,1.261181 -0.63821,3.086806 -0.90722,4.056943 -0.269,0.97014 -0.90809,3.589515 -1.42021,5.820836 -1.59428,6.946489 -2.55313,10.770949 -4.90877,19.579169 -0.51001,1.90705 -1.44994,6.30022 -1.77372,8.29027 -0.20089,1.23473 -0.20089,1.23473 0.33919,0.0477 0.29703,-0.65286 0.54007,-1.47841 0.54007,-1.83455 0,-0.35614 0.21497,-0.77447 0.47771,-0.92964 0.26274,-0.15516 0.56617,-0.67898 0.67429,-1.16405 0.49102,-2.20289 0.60755,-2.56831 0.95095,-2.98208 0.20114,-0.24236 0.40051,-0.86116 0.44305,-1.37512 0.0425,-0.51396 0.20146,-0.93447 0.35317,-0.93447 0.15171,0 0.27583,-0.15776 0.27583,-0.35057 0,-0.1928 0.72352,-1.97874 1.60783,-3.96875 0.8843,-1.99 1.81914,-4.09443 2.07742,-4.67651 0.25829,-0.58209 0.57733,-1.41552 0.70901,-1.85209 0.13167,-0.43656 0.37514,-0.79375 0.54104,-0.79375 0.16591,0 0.4953,-0.59531 0.73199,-1.32291 0.23668,-0.72761 0.64586,-1.63605 0.9093,-2.01878 0.26343,-0.38271 0.47897,-0.92675 0.47897,-1.20895 0,-0.28221 0.635,-1.825011 1.41111,-3.428455 0.77611,-1.603444 1.41111,-3.083052 1.41111,-3.28802 0,-0.392094 1.7827,-4.433887 2.70562,-6.134274 0.2977,-0.548479 0.46701,-1.385705 0.37625,-1.860505 -0.0908,-0.4748 -0.003,-0.963388 0.19495,-1.085752 0.21828,-0.134906 0.25704,-0.02745 0.0985,0.273005 -0.14383,0.272513 0.0638,0.0986 0.4614,-0.386464 0.3976,-0.485071 0.81923,-1.3110529 0.93694,-1.8355179 0.11774,-0.524465 0.51308,-1.333735 0.87858,-1.798381 0.36549,-0.464645 0.7372,-1.226163 0.82605,-1.692259 0.27633,-1.449692 4.2064,-10.125546 4.77853,-10.548842 0.13111,-0.09701 0.90795,-1.565452 1.72628,-3.263196 0.81833,-1.697744 1.65441,-3.0868071 1.85796,-3.0868071 0.20354,0 0.27196,-0.15875 0.15203,-0.352777 -0.11991,-0.194026 -0.0236,-0.352776 0.21436,-0.352776 0.23783,0 0.34618,-0.08622 0.2408,-0.191609 -0.19463,-0.19462 0.91744,-1.573202 3.375,-4.183785 0.74837,-0.794993 1.25253,-1.207315 1.12035,-0.916273 -0.1529,0.33669 -0.0563,0.304612 0.26569,-0.0882 0.27832,-0.339548 0.66604,-0.617361 0.86162,-0.617361 0.43378,0 1.58575,3.952632 1.34943,4.630164 -0.0931,0.266811 -0.40746,2.072613 -0.69869,4.0128931 -1.53548,10.23029201 -4.16105,19.3977549 -9.9015,34.5722229 -0.51382,1.358199 -1.39965,3.775479 -1.9685,5.371739 -0.56885,1.59626 -1.43071,3.76891 -1.91519,4.82809 -0.48448,1.05919 -0.88087,2.13923 -0.88087,2.40008 0,0.26086 -0.52573,1.73947 -1.16833,3.2858 -0.64256,1.54633 -1.45418,3.84339 -1.80359,5.10457 -0.3494,1.26118 -0.81213,2.76931 -1.02827,3.35139 -1.35615,3.6521 -0.82972,5.61742 0.79665,2.97412 0.30674,-0.49854 1.17865,-1.84065 1.93756,-2.98246 0.7589,-1.14182 1.88185,-3.23048 2.49539,-4.64145 0.61354,-1.41098 1.35429,-2.84699 1.6461,-3.19115 0.29179,-0.34415 0.72306,-1.30041 0.95835,-2.12503 0.23529,-0.82462 0.551,-1.49931 0.70154,-1.49931 0.15058,0 0.73951,-0.99218 1.30877,-2.20486 0.56925,-1.21267 1.11437,-2.28424 1.21139,-2.38125 0.77219,-0.77219 1.20452,-1.52874 0.70556,-1.23472 -0.42174,0.24852 -0.45034,0.20855 -0.14094,-0.19687 0.21355,-0.27978 1.30609,-2.25494 2.4279,-4.38924 1.1218,-2.134309 2.23829,-4.118687 2.48107,-4.409729 0.24279,-0.291041 0.79913,-1.243541 1.2363,-2.116666 0.43717,-0.873125 1.17004,-2.036244 1.62859,-2.584707 0.87632,-1.048123 1.11892,-1.866516 0.42645,-1.43855 -0.25437,0.157207 -0.31144,0.09664 -0.152,-0.161322 0.14039,-0.227171 0.38653,-0.331917 0.54694,-0.23277 0.16045,0.09915 0.74086,-0.05275 1.28982,-0.337563 2.07063,-1.074256 2.46282,6.832547 0.83082,16.749357 -0.17563,1.06715 -0.46646,2.89278 -0.6463,4.05695 -0.17986,1.16416 -0.49263,2.83104 -0.69506,3.70416 -0.20243,0.87313 -0.70265,3.4925 -1.11162,5.82084 -0.40894,2.32833 -0.89045,4.86833 -1.07003,5.64444 -0.17954,0.77611 -0.74414,3.31611 -1.25465,5.64445 -0.51049,2.32833 -1.07413,4.86833 -1.25251,5.64444 -0.17836,0.77611 -0.56131,2.60174 -0.85098,4.05695 -0.28969,1.4552 -0.69236,3.3602 -0.89482,4.23333 -0.85254,3.67648 -1.08649,4.8873 -1.38835,7.18552 -0.35893,2.73279 -0.47924,2.9752 -1.13816,2.29328 -0.54769,-0.56681 -0.49715,-3.46092 0.0792,-4.5379 0.21256,-0.39718 0.29861,-0.86435 0.19119,-1.03816 -0.18336,-0.29666 0.12255,-2.23632 0.86585,-5.49024 0.17727,-0.77611 0.80798,-3.63361 1.40157,-6.35 0.5936,-2.71639 1.39888,-6.28827 1.78951,-7.9375 0.39066,-1.64924 0.71178,-3.47486 0.71364,-4.05695 0.003,-0.58208 0.2586,-2.01083 0.57057,-3.175 0.312,-1.16416 0.57256,-2.62459 0.57907,-3.2454 0.007,-0.65482 0.15891,-1.03785 0.36211,-0.91227 0.20711,0.12801 0.2577,-0.0247 0.12382,-0.37363 -0.12456,-0.32456 -0.061,-1.02529 0.14129,-1.55717 0.20225,-0.5319 0.4372,-1.84021 0.5221,-2.90736 0.12605,-1.58412 0.42119,-3.61121 0.66778,-4.58611 0.2304,-0.911 0.6612,-4.05438 0.74938,-5.46806 0.0605,-0.97013 0.22006,-3.3117 0.35454,-5.203469 0.1773,-2.493764 0.13327,-3.439586 -0.16007,-3.439586 -0.22251,0 -0.4046,0.153276 -0.4046,0.340614 0,0.187341 -0.45114,0.802137 -1.00256,1.366213 -0.55139,0.564081 -1.8456,2.672995 -2.87599,4.686478 -1.0304,2.01348 -1.96832,3.74024 -2.08426,3.83725 -0.11594,0.097 -0.81709,1.36702 -1.55808,2.82223 -0.74102,1.4552 -2.67015,5.21569 -4.28696,8.35662 -2.65893,5.16541 -3.72115,7.55026 -3.70528,8.31898 0.003,0.14929 -0.3152,0.61579 -0.70728,1.03666 -0.39212,0.42087 -0.71292,0.88186 -0.71292,1.02441 0,0.5266 -1.8809,2.47238 -2.89875,2.99873 -3.83869,1.98506 -4.95657,-0.0945 -3.24504,-6.03679 1.12766,-3.91511 1.3623,-4.61512 1.77371,-5.29167 0.23598,-0.38805 0.84944,-1.93682 1.36325,-3.44169 0.5138,-1.50487 1.16144,-3.17175 1.43917,-3.70417 0.27773,-0.53241 0.50596,-1.17279 0.50715,-1.42306 0,-0.25026 0.31287,-1.06404 0.6926,-1.8084 0.37976,-0.74435 0.5828,-1.46103 0.4512,-1.59262 -0.13158,-0.13159 -0.0851,-0.34969 0.10332,-0.48466 0.53393,-0.38249 2.03155,-4.03467 2.01739,-4.9197 -0.007,-0.43657 0.11695,-0.79375 0.27541,-0.79375 0.15846,0 0.47985,-0.59532 0.71421,-1.322923 0.23434,-0.727604 0.54123,-1.481669 0.68197,-1.675696 0.1407,-0.194027 0.34591,-0.670277 0.45603,-1.058333 0.11012,-0.388057 0.61929,-1.816807 1.13149,-3.175 0.51224,-1.358194 0.99902,-2.918151 1.08175,-3.466563 0.0827,-0.548418 0.38664,-1.500918 0.67535,-2.116667 0.92821,-1.979623 2.33289,-6.3545449 2.68147,-8.3514929 0.1863,-1.067152 0.49628,-2.257777 0.68887,-2.645834 1.29985,-2.61907799 3.0651,-16.0513891 2.10945,-16.0513891 -0.19402,0 -0.35277,0.140512 -0.35277,0.31225 0,0.171736 -0.69993,1.163924 -1.55536,2.204863 -2.46737,3.0023941 -4.69299,6.7855711 -6.92443,11.77038911 -0.34745,0.77611099 -1.37303,2.99861099 -2.2791,4.93888699 -0.90606,1.94028 -1.69979,3.781817 -1.76382,4.092308 -0.0641,0.3104909 -0.83401,2.1361159 -1.71103,4.0569439 -0.87702,1.92083 -1.70335,3.968665 -1.83629,4.550748 -0.13293,0.582084 -0.43779,1.375834 -0.67746,1.76389 -0.23967,0.388057 -1.10915,2.293057 -1.93218,4.233334 -0.82303,1.940285 -1.95743,4.506385 -2.52088,5.702455 -0.56346,1.19607 -1.02446,2.28518 -1.02446,2.42024 0,0.13506 -0.54462,1.37896 -1.21026,2.76422 -3.70705,7.71465 -6.90363,15.61971 -6.90363,17.07249 0,0.9103 -2.5121,6.22077 -3.35953,7.1019 -0.94611,0.98373 -2.96565,-0.36763 -2.46778,-1.65129 0.12834,-0.33092 0.3015,-1.15731 0.38479,-1.8364 0.18346,-1.4959 1.39265,-6.96228 2.34108,-10.58333 0.38116,-1.45521 0.93566,-3.67771 1.23223,-4.93889 0.29657,-1.26119 0.78251,-2.92806 1.07985,-3.70417 0.29735,-0.77611 0.66731,-2.04611 0.82212,-2.82222 0.62753,-3.14607 1.72382,-7.49896 2.25707,-8.961856 0.31145,-0.854435 0.47654,-1.787366 0.36686,-2.073187 -0.10968,-0.285817 -0.0324,-0.720866 0.17164,-0.966769 0.20409,-0.245907 0.46385,-1.297348 0.57726,-2.336536 0.1134,-1.039191 0.40212,-2.206934 0.64159,-2.594991 0.23946,-0.388056 0.54404,-1.434584 0.67683,-2.325616 0.44046,-2.955634 0.60608,-3.645609 0.98453,-4.101621 0.20629,-0.24856 0.28734,-0.451929 0.18011,-0.451929 -0.10722,0 -0.0436,-0.5159379 0.14129,-1.1465269 0.50479,-1.721242 2.82987,-13.164214 3.20769,-15.786807 0.18169,-1.261181 0.56545,-2.99285 0.85278,-3.8481611 0.51846,-1.543272 0.1515,-2.956277 -0.49576,-1.908982 -0.13956,0.225812 -1.04576,1.310685 -2.01378,2.410831 -2.85878,3.2489591 -6.35465,8.5185271 -8.65595,13.0477021 -2.66275,5.240552 -3.3456,6.865093 -6.30206,14.9930539 -0.81162,2.231321 -1.78567,4.709334 -2.16455,5.506696 -0.37887,0.797364 -0.68887,1.644814 -0.68887,1.883219 0,0.238409 -0.49107,1.49102 -1.09126,2.78359 -0.6002,1.29256 -1.45127,3.30261 -1.89128,4.46678 -0.44001,1.16416 -1.13127,2.84383 -1.53615,3.73259 -0.40488,0.88875 -1.04417,2.39688 -1.42063,3.35138 -0.37647,0.95451 -2.98236,6.41859 -5.79087,12.14242 -2.80852,5.72381 -5.31437,10.96256 -5.56857,11.64166 -3.01638,8.05817 -7.29906,13.66859 -9.01802,11.81381 -0.8648,-0.93314 -0.86539,-0.86076 0.062,-7.52151 0.27914,-2.00486 0.42592,-3.77724 0.32619,-3.93862 -0.0997,-0.16138 -0.0395,-0.34666 0.13376,-0.41174 0.43555,-0.16355 0.74928,-2.81626 0.98314,-8.31286 0.24185,-5.68465 0.14578,-6.06511 -1.20243,-4.76194 -0.5474,0.52911 -0.95952,1.01932 -0.91581,1.08933 0.0437,0.07 -0.66574,1.03998 -1.57655,2.15547 -0.9108,1.11549 -2.29101,2.85732 -3.06712,3.87074 -0.77611,1.01341 -1.70692,2.18658 -2.06847,2.60703 -0.36154,0.42046 -1.07592,1.31069 -1.5875,1.9783 -0.51157,0.66762 -1.24764,1.56573 -1.63569,1.9958 -0.38806,0.43007 -1.32286,1.4999 -2.07733,2.37739 -3.59449,4.18057 -9.30968,4.28826 -9.64954,0.18183 -0.0409,-0.49482 -0.21099,-1.26876 -0.37787,-1.71987 -0.28037,-0.75793 0.29479,-5.2105 1.34331,-10.39899 0.35405,-1.75198 0.41571,-1.98259 0.80176,-2.99861 0.32746,-0.86184 0.66697,-2.58763 0.67667,-3.43959 0.005,-0.43656 0.16796,-0.79375 0.36223,-0.79375 0.19426,0 0.26377,-0.23304 0.15447,-0.51786 -0.1093,-0.28483 -0.0653,-0.60036 0.0979,-0.70118 0.30918,-0.19109 1.19554,-4.3706 1.05319,-4.96624 -0.0882,-0.36896 0.23976,-1.3869 0.76181,-2.36479 2.09472,-3.92376 -0.45624,-1.84023 -4.46291,3.64515 -2.08463,2.85398 -3.85132,5.0613 -6.32579,7.90354 -0.84461,0.97013 -2.35929,2.7902 -3.36596,4.04458 -1.00666,1.25437 -2.40666,2.90184 -3.11111,3.66103 -3.07305,3.31186 -5.98016,6.22911 -6.20746,6.22911 -0.13545,0 -0.97278,0.59531 -1.86072,1.32292 -2.74686,2.25084 -8.65417,1.59898 -9.59089,-1.05834 -0.1881,-0.53357 -0.48698,-0.97014 -0.66419,-0.97014 -0.17722,0 -0.24389,-0.40974 -0.14815,-0.91054 0.17639,-0.92272 -3.63664,0.49609 -4.32454,1.60914 -0.25396,0.4109 -2.52491,1.47182 -4.52582,2.11433 -2.08038,0.66801 -3.29611,-1.35433 -1.38648,-2.30639 0.43369,-0.21622 0.67041,-0.52347 0.52604,-0.68278 -0.14437,-0.15931 -0.0867,-0.18945 0.12819,-0.067 0.51145,0.29153 6.11097,-2.45685 6.36748,-3.12531 0.10877,-0.28345 0.69684,-0.75218 1.30682,-1.04164 1.0531,-0.49972 1.11316,-0.63759 1.1904,-2.73236 0.079,-2.14369 0.34122,-3.73491 1.14133,-6.92696 0.51443,-2.0523 0.247,-2.19074 -1.13464,-0.58732 -2.03438,2.36095 -8.95306,9.14809 -10.72132,10.51749 -4.43462,3.43433 -11.00828,7.90739 -12.82825,8.72902 -1.09689,0.4952 -2.57477,1.33855 -4.41505,2.51947 -1.52512,0.97868 -10.00868,4.97527 -11.45995,5.39877 -0.48507,0.14155 -1.56822,0.57994 -2.40701,0.9742 -2.26825,1.06617 -10.57074,3.45211 -17.52494,5.03625 -1.35819,0.3094 -3.10444,0.71163 -3.88055,0.89385 -2.014,0.47286 -4.78697,0.98459 -8.64306,1.59501 -4.78392,0.75728 -20.9792,0.9719 -25.4,0.33659 z m 101.9566,-30.10223 c 0.002,-0.1306 0.78842,-0.79308 1.74736,-1.47217 0.95895,-0.6791 1.75099,-1.36316 1.76007,-1.52013 0.009,-0.15697 0.16385,-0.19435 0.34391,-0.0831 0.18006,0.11128 0.42888,-0.11747 0.55294,-0.50835 0.12405,-0.39087 0.4148,-0.71068 0.64609,-0.71068 0.43856,0 1.43772,-1.32821 1.45959,-1.94027 0.007,-0.19403 0.17136,-0.35845 0.36539,-0.36539 0.62148,-0.0222 1.94027,-1.02412 1.94027,-1.47408 0,-0.23926 0.71438,-1.1494 1.5875,-2.02252 0.87313,-0.87313 1.5875,-1.82044 1.5875,-2.10513 0,-0.2847 0.18573,-0.63242 0.41273,-0.77271 0.28529,-0.17632 0.33949,-0.0466 0.17553,0.42015 -0.25582,0.7282 -0.20338,0.67151 1.33794,-1.44641 0.2844,-0.39079 1.0786,-1.32356 1.76489,-2.07281 0.68629,-0.74926 1.2478,-1.48887 1.2478,-1.64359 0,-0.15471 0.49191,-0.77321 1.09314,-1.37443 0.66442,-0.66442 1.01189,-1.30485 0.88599,-1.63296 -0.11394,-0.2969 -0.0734,-0.45718 0.09,-0.35617 0.3712,0.22941 1.10321,-1.3273 1.11372,-2.36847 0.004,-0.42743 0.31828,-1.17403 0.69771,-1.65909 0.37943,-0.48508 0.69339,-1.15039 0.69771,-1.47849 0.004,-0.3281 0.15254,-0.68597 0.32939,-0.79527 0.17685,-0.1093 0.27763,-0.59878 0.22396,-1.08773 -0.0537,-0.48895 0.0477,-0.978813 0.22533,-1.088581 0.41636,-0.257325 0.28387,-5.074936 -0.13957,-5.074936 -0.17607,0 -0.23647,-0.135363 -0.13422,-0.300804 0.74872,-1.211451 -2.0278,-1.953776 -4.18989,-1.120201 -3.82038,1.472911 -12.88771,12.283872 -12.88771,15.365992 0,0.40181 -0.1425,0.88138 -0.31668,1.06571 -1.87908,1.98863 -5.65276,12.10986 -6.53244,17.52036 -0.66681,4.1013 -0.49818,4.74808 0.87889,3.37102 0.56724,-0.56724 1.03306,-1.1382 1.03516,-1.26879 z m 200.14741,-21.40763 c -0.37253,-0.9708 0.0916,-11.608698 0.54327,-12.452719 1.20441,-2.250461 3.58045,0.913622 2.65525,3.535911 -0.27641,0.783367 -0.51337,2.158408 -0.5266,3.055648 -0.0575,3.89695 -1.88627,7.90856 -2.67192,5.86116 z m -234.18342,-49.459691 c -0.66738,-0.176379 -2.63943,-2.137769 -2.65106,-2.63675 -0.003,-0.132892 0.17875,-0.688517 0.40411,-1.234723 0.22536,-0.546208 0.38411,-1.112165 0.35278,-1.257686 -0.0313,-0.145521 0.0763,-0.264583 0.23918,-0.264583 0.16288,0 0.48106,-0.405826 0.70706,-0.901838 0.24544,-0.538689 0.5743,-0.800849 0.81668,-0.65105 0.23769,0.146897 0.31022,0.09615 0.1751,-0.122483 -0.36128,-0.584552 5.55325,-6.064211 6.55987,-6.077556 1.23744,-0.0164 0.57391,1.32965 -1.94028,3.93609 -5.09261,5.279474 -5.6478,6.387616 -3.61593,7.21737 2.57704,1.052396 1.70089,2.719565 -1.04751,1.993209 z"
       style="fill:#000000;stroke-width:0.35277778" />
  </g>
</svg>
